<svg xmlns="http://www.w3.org/2000/svg" xml:space="preserve" width="155px" height="135px" version="1.1" style="shape-rendering:geometricPrecision; text-rendering:geometricPrecision; image-rendering:optimizeQuality; fill-rule:evenodd; clip-rule:evenodd; font-size: 1rem;" viewBox="0 0 20.29 17.66" xmlns:xlink="http://www.w3.org/1999/xlink">
  <defs>
    <style type="text/css">
      .fil0 { fill:#2B2A29; }
    </style>
  </defs>
  <g id="Warstwa_x0020_1">
    <g id="_2564327346112">
      <path class="fil0" d="M14.38 10.6l0.01 -5.58c-0.47,-0.07 -1.41,-0.01 -1.92,-0.01l-5.76 0c-1.09,0 -2.71,-0.06 -3.65,0.19 -0.48,0.13 -0.9,0.21 -1.39,0.53 -1.93,1.26 -1.66,3.78 -1.66,6.07 0,0.61 -0.02,1.31 0.06,1.86 0.14,1.03 0.14,1.97 0.97,2.88 0.55,0.6 1.74,1.05 2.8,1.06 0.27,-0.04 0.97,0.03 1.31,0.03l6.58 0c0.79,0 1.84,0.06 2.6,0 0.05,-0.13 0.05,-2.87 0.04,-4.64l-1.8 0c0,1.27 -0.01,2.97 -0.03,3.05 -0.58,0.05 -1.36,0.01 -1.95,0.01l-4.92 0c-0.26,0 -0.78,-0.06 -0.98,-0.03 -0.8,0 -1.69,-0.34 -2.1,-0.79 -0.62,-0.69 -0.62,-1.38 -0.73,-2.16 -0.06,-0.41 -0.04,-0.93 -0.04,-1.39 0,-1.72 -0.2,-3.6 1.24,-4.55 0.37,-0.23 0.68,-0.29 1.04,-0.39 0.71,-0.18 1.92,-0.14 2.74,-0.14l4.3 0c0.39,0 1.09,-0.04 1.44,0.01l-0.01 3.99 1.81 0z"/>
      <path class="fil0" d="M5.92 4.61l-0.01 -4.58c0.46,-0.06 1.4,-0.01 1.91,-0.01l5.76 0c1.09,0 2.71,-0.05 3.65,0.19 0.48,0.13 0.9,0.21 1.39,0.53 1.93,1.26 1.66,3.78 1.66,6.07 0,0.62 0.03,1.31 -0.05,1.87 -0.15,1.03 -0.14,1.96 -0.98,2.88 -0.54,0.6 -1.73,1.05 -2.8,1.05 -0.27,-0.04 -0.96,0.04 -1.31,0.04l-6.57 0c-0.8,0 -1.84,0.06 -2.61,-0.01 -0.05,-0.13 -0.05,-3.73 -0.04,-5.64l1.87 0c-0.01,1.47 0,3.91 0.03,4 0.57,0.05 1.34,0.01 1.93,0.01l4.86 0c0.25,0 0.77,-0.06 0.97,-0.03 0.79,0 1.67,-0.34 2.07,-0.78 0.62,-0.68 0.61,-1.37 0.72,-2.13 0.06,-0.41 0.04,-0.93 0.04,-1.38 0,-1.7 0.2,-3.56 -1.22,-4.49 -0.37,-0.24 -0.68,-0.3 -1.03,-0.39 -0.7,-0.19 -1.9,-0.15 -2.71,-0.15l-4.26 0c-0.37,0 -1.07,-0.04 -1.41,0.01l0 2.94 -1.86 0z"/>
    </g>
  </g>
</svg>
