<svg xmlns="http://www.w3.org/2000/svg" fill="currentColor" viewBox="0 0 16 16">
    <path class="fil0" d="M620.79 115.33c280.21,-70.09 454.36,-70.09 734.57,0 121.04,30.26 269.1,103.9 390.14,172.76 106.21,60.21 168.89,177.23 168.89,305.53l0 1376.66c0,127.87 -103.7,231.57 -231.58,231.57l-1389.47 0c-127.87,0 -231.58,-103.7 -231.58,-231.57l0 -1376.66c0,-128.3 62.68,-245.17 168.9,-305.68 121.04,-68.71 269.25,-142.35 390.14,-172.61l-0.01 0zm755.48 -62.22c-282.38,-70.81 -467.48,-70.81 -749.72,0 -132.17,32.9 -283.52,109.57 -397.67,174.52 -147.92,83.97 -228.88,242.75 -228.88,407.25l0 1275.72c0,197.47 160.15,357.62 357.62,357.62l1287.44 0c197.47,0 357.62,-160.15 357.62,-357.63l0 -1275.56c0,-164.51 -80.82,-323.29 -228.88,-407.55 -114.01,-64.8 -265.35,-141.33 -397.53,-174.51l0 0.14zm-851.35 1839.97c0,85.25 -69.13,154.39 -154.38,154.39 -85.25,0 -154.39,-69.14 -154.39,-154.39 0,-85.25 69.14,-154.38 154.39,-154.38 85.25,0 154.38,69.13 154.38,154.38l0 0zm0 0c0,-85.25 69.14,-154.38 154.39,-154.38 85.25,0 154.38,69.13 154.38,154.38 0,85.25 -69.13,154.39 -154.38,154.39 -85.25,0 -154.39,-69.14 -154.39,-154.39l0 0zm1080.7 154.39c85.25,0 154.39,-69.14 154.39,-154.39 0,-85.25 -69.14,-154.38 -154.39,-154.38 -85.25,0 -154.38,69.13 -154.38,154.38 0,-85.25 -69.14,-154.38 -154.39,-154.38 -85.25,0 -154.39,69.13 -154.39,154.38 0,85.25 69.14,154.39 154.39,154.39 85.25,0 154.39,-69.14 154.39,-154.39 0,85.25 69.13,154.39 154.38,154.39l0 0zm-1157.89 -1389.47c-42.63,0 -77.19,34.56 -77.19,77.19l0 308.77c0,42.63 34.56,77.19 77.19,77.19l463.16 0 0 -463.15 -463.16 0zm540.35 385.96l0 463.16 463.16 0c42.62,0 77.19,-34.57 77.19,-77.2l0 -308.77c0,-42.62 -34.57,-77.19 -77.19,-77.19l-463.16 0zm-771.93 -308.77c0,-127.88 103.7,-231.58 231.58,-231.58l1080.7 0c127.87,0 231.58,103.7 231.58,231.58l0 308.77c0,127.88 -103.71,231.58 -231.58,231.58l-1080.7 0c-127.88,0 -231.58,-103.7 -231.58,-231.58l0 -308.77zm540.35 -540.35c-42.62,0 -77.19,34.57 -77.19,77.19 0,42.63 34.57,77.2 77.19,77.2l463.16 0c42.62,0 77.19,-34.57 77.19,-77.2 0,-42.62 -34.57,-77.19 -77.19,-77.19l-463.16 0z"/>
</svg>